<svg width="120" height="28" viewBox="0 0 120 28" fill="none" xmlns="http://www.w3.org/2000/svg">
  <rect width="28" height="28" rx="6" fill="url(#g1)"/>
  <path d="M22.6 14c0 .98-.39 1.92-1.08 2.61a3.69 3.69 0 01-2.61 1.08H14a3.69 3.69 0 00-3.1 5.69 3.69 3.69 0 005.79.27c.6-.6.96-1.33 1.15-2.12.09-.38.14-.77.14-1.17v-1.69c0-.13.05-.26.15-.35a.49.49 0 01.7 0c.1.09.15.22.15.35v1.69a5.94 5.94 0 01-1.74 4.22A5.94 5.94 0 0114 26a5.94 5.94 0 01-4.24-1.76A5.94 5.94 0 018 20a5.94 5.94 0 014.24-1.74H19a2.7 2.7 0 001.9-.79 2.7 2.7 0 000-3.82 2.7 2.7 0 00-1.9-.79h-1.69a.49.49 0 010-.99H19a3.69 3.69 0 013.6 3.69v.44zM11.14 12.43a.49.49 0 01-.5-.5v-1.69A5.94 5.94 0 0114 6a5.94 5.94 0 014.24 1.76A5.94 5.94 0 0120 12v7.57a.49.49 0 01-.5.5.49.49 0 01-.5-.5V12a4.94 4.94 0 00-10-1.47A4.94 4.94 0 008 12v1.69a.49.49 0 01-.99 0V12a5.94 5.94 0 0111.87 0v7.57a.49.49 0 01-.5.5.49.49 0 01-.5-.5V12a3.69 3.69 0 00-7.37 0v.93a.49.49 0 01.5-.5z" fill="white" opacity="0.9"/>
  <text x="34" y="20" font-family="Inter, system-ui, sans-serif" font-size="16" font-weight="600" fill="#EAEAEA">Fold Health</text>
  <defs>
    <linearGradient id="g1" x1="19.6" y1="8.5" x2="17.9" y2="24.9" gradientUnits="userSpaceOnUse">
      <stop stop-color="#8C5AE2"/>
      <stop offset="1" stop-color="#4B4086"/>
    </linearGradient>
  </defs>
</svg>
