<svg width="225" height="71" viewBox="0 0 225 71" fill="none" xmlns="http://www.w3.org/2000/svg">
<g clip-path="url(#clip0_388_22)">
<path d="M0 6.77661H11.0406C13.0541 6.77661 14.7039 7.04734 16.0068 7.59725C17.3096 8.14717 18.3333 8.84091 19.0863 9.67847C19.8393 10.516 20.3638 11.4636 20.6599 12.5127C20.956 13.5617 21.0998 14.5769 21.0998 15.5499C21.0998 16.5228 20.9475 17.538 20.6599 18.5871C20.3638 19.6362 19.8393 20.5837 19.0863 21.4213C18.3333 22.2673 17.3012 22.961 16.0068 23.5025C14.7039 24.0524 13.0541 24.3231 11.0406 24.3231H4.2555V38.1556H0V6.77661ZM4.2555 20.6176H9.83926C10.6684 20.6176 11.489 20.5499 12.3012 20.4145C13.1134 20.2791 13.8409 20.0338 14.4755 19.6869C15.11 19.3316 15.6176 18.824 16.0068 18.1556C16.3875 17.4873 16.5821 16.6243 16.5821 15.5583C16.5821 14.4923 16.3875 13.6294 16.0068 12.961C15.6261 12.2927 15.11 11.7851 14.4755 11.4297C13.8409 11.0744 13.1134 10.8291 12.3012 10.7022C11.489 10.5668 10.6684 10.4991 9.83926 10.4991H4.2555V20.6091V20.6176Z" fill="#1C355E"/>
<path d="M25.2708 17.1573H29.264V20.3975H29.357C29.6193 19.8392 29.9746 19.3231 30.423 18.8662C30.863 18.4094 31.3621 18.0202 31.912 17.6903C32.462 17.3688 33.0542 17.1065 33.7056 16.9119C34.357 16.7173 35.0085 16.6243 35.6599 16.6243C36.3114 16.6243 36.9036 16.7089 37.4366 16.8865L37.2589 21.1843C36.929 21.0997 36.6075 21.0236 36.286 20.9644C35.9645 20.9051 35.6345 20.8798 35.3131 20.8798C33.3587 20.8798 31.8697 21.4297 30.8376 22.5211C29.8054 23.6124 29.2894 25.3129 29.2894 27.6226V38.1725H25.2961V17.1573H25.2708Z" fill="#1C355E"/>
<path d="M39.8647 27.665C39.8647 26.1252 40.1524 24.6954 40.7277 23.3672C41.303 22.0389 42.0982 20.8714 43.0966 19.8646C44.1033 18.8579 45.2878 18.0711 46.6414 17.4958C48.0035 16.9205 49.4671 16.6328 51.0323 16.6328C52.5974 16.6328 54.061 16.9205 55.4231 17.4958C56.7852 18.0711 57.9612 18.8663 58.968 19.8646C59.9747 20.8714 60.7615 22.0389 61.3368 23.3672C61.9121 24.6954 62.1998 26.1337 62.1998 27.665C62.1998 29.1963 61.9121 30.643 61.3368 31.9881C60.7615 33.3333 59.9663 34.5008 58.968 35.4907C57.9612 36.4805 56.7768 37.2673 55.4231 37.8426C54.061 38.4179 52.5974 38.7056 51.0323 38.7056C49.4671 38.7056 48.0035 38.4179 46.6414 37.8426C45.2793 37.2673 44.0949 36.4805 43.0966 35.4907C42.0898 34.5008 41.303 33.3333 40.7277 31.9881C40.1524 30.643 39.8647 29.2047 39.8647 27.665ZM44.1202 27.665C44.1202 28.731 44.281 29.7123 44.6109 30.6176C44.9324 31.5228 45.3977 32.2842 45.99 32.9272C46.5822 33.5617 47.3013 34.0694 48.1642 34.4332C49.0187 34.8054 49.9832 34.9915 51.0492 34.9915C52.1152 34.9915 53.0712 34.8054 53.9341 34.4332C54.7886 34.0609 55.5162 33.5617 56.1084 32.9272C56.7006 32.2927 57.1575 31.5228 57.479 30.6176C57.8004 29.7123 57.9696 28.731 57.9696 27.665C57.9696 26.599 57.8089 25.6176 57.479 24.7123C57.1575 23.8071 56.6922 23.0457 56.1084 22.4112C55.5162 21.7766 54.7886 21.2775 53.9341 20.9052C53.0796 20.533 52.1152 20.3469 51.0492 20.3469C49.9832 20.3469 49.0272 20.533 48.1642 20.9052C47.3098 21.2775 46.5822 21.7766 45.99 22.4112C45.3977 23.0457 44.9409 23.8156 44.6109 24.7123C44.2895 25.6176 44.1202 26.599 44.1202 27.665Z" fill="#1C355E"/>
<path d="M66.0575 17.1573H69.78V20.4398H69.8731C69.9662 20.1437 70.1946 19.7715 70.5584 19.3315C70.9306 18.8916 71.4044 18.4686 71.9797 18.071C72.555 17.6733 73.2318 17.3349 74.0186 17.0473C74.8054 16.7681 75.6684 16.6243 76.6159 16.6243C78.181 16.6243 79.5008 16.9458 80.5584 17.5972C81.6244 18.2486 82.4958 19.2216 83.1726 20.5244C83.8494 19.2216 84.8139 18.2486 86.0575 17.5972C87.3012 16.9458 88.5533 16.6243 89.8223 16.6243C91.4467 16.6243 92.775 16.8865 93.8156 17.4195C94.8477 17.9525 95.6599 18.6547 96.2521 19.5261C96.8443 20.3975 97.2504 21.3874 97.4704 22.4957C97.6904 23.604 97.8003 24.7461 97.8003 25.9305V38.1725H93.8071V26.4635C93.8071 25.6683 93.7563 24.8984 93.6548 24.1623C93.5533 23.4263 93.3333 22.7749 93.0118 22.208C92.6904 21.6496 92.225 21.1928 91.6328 20.8544C91.0406 20.516 90.2623 20.3468 89.2809 20.3468C87.3604 20.3468 85.9814 20.939 85.1607 22.1234C84.3316 23.3079 83.9171 24.8307 83.9171 26.6919V38.1725H79.9239V27.1742C79.9239 26.1674 79.8731 25.2537 79.7716 24.4246C79.6701 23.5955 79.4585 22.8764 79.154 22.2757C78.8409 21.6666 78.401 21.2013 77.8257 20.8544C77.2504 20.516 76.4721 20.3468 75.4992 20.3468C74.7885 20.3468 74.1032 20.4906 73.4349 20.7698C72.7665 21.049 72.1827 21.472 71.6836 22.0304C71.1844 22.5887 70.7783 23.3079 70.4822 24.1793C70.1861 25.0507 70.0423 26.0828 70.0423 27.2588V38.164H66.0491V17.1488L66.0575 17.1573Z" fill="#1C355E"/>
<path d="M102.978 17.1575H106.971V38.1727H102.978V17.1575Z" fill="#1C355E"/>
<path d="M113.308 17.1573H117.301V20.3976H117.394C117.893 19.2724 118.765 18.3672 120.009 17.6734C121.252 16.9797 122.682 16.6328 124.306 16.6328C125.313 16.6328 126.278 16.7851 127.208 17.0981C128.139 17.4112 128.951 17.8849 129.645 18.5364C130.338 19.1878 130.897 20.0254 131.311 21.0406C131.726 22.0643 131.929 23.2656 131.929 24.6531V38.181H127.936V25.7614C127.936 24.7885 127.8 23.9509 127.538 23.2572C127.276 22.5634 126.921 22.0051 126.472 21.5736C126.032 21.1421 125.516 20.8375 124.941 20.643C124.366 20.4484 123.765 20.3553 123.147 20.3553C122.318 20.3553 121.548 20.4907 120.838 20.7529C120.127 21.0152 119.509 21.4382 118.976 22.0135C118.443 22.5888 118.029 23.3249 117.733 24.2047C117.437 25.093 117.293 26.1421 117.293 27.3519V38.1726H113.3V17.1573H113.308Z" fill="#1C355E"/>
<path d="M139.805 29.1285C139.805 30.0422 140.008 30.8798 140.406 31.6327C140.804 32.3857 141.328 33.0287 141.98 33.5617C142.631 34.0947 143.384 34.5092 144.238 34.8053C145.093 35.1014 145.981 35.2452 146.903 35.2452C148.147 35.2452 149.222 34.9576 150.144 34.3823C151.066 33.807 151.903 33.0456 152.673 32.098L155.685 34.4077C153.469 37.2757 150.364 38.7055 146.37 38.7055C144.712 38.7055 143.215 38.4263 141.87 37.8595C140.524 37.2926 139.391 36.5227 138.452 35.5329C137.521 34.543 136.802 33.3755 136.303 32.0304C135.804 30.6852 135.55 29.23 135.55 27.6649C135.55 26.0997 135.821 24.6446 136.37 23.2994C136.92 21.9542 137.673 20.7867 138.629 19.7969C139.585 18.807 140.736 18.0287 142.064 17.4703C143.392 16.9119 144.839 16.6243 146.413 16.6243C148.274 16.6243 149.848 16.9458 151.134 17.5972C152.42 18.2486 153.477 19.0947 154.306 20.1437C155.135 21.1928 155.736 22.3772 156.1 23.6886C156.472 25.0084 156.65 26.3451 156.65 27.6987V29.12H139.797L139.805 29.1285ZM152.403 25.939C152.369 25.0507 152.233 24.2385 151.98 23.5024C151.726 22.7664 151.354 22.1234 150.846 21.5735C150.347 21.0236 149.712 20.6006 148.959 20.2876C148.206 19.9745 147.326 19.8222 146.32 19.8222C145.313 19.8222 144.45 20.0084 143.638 20.3806C142.826 20.7529 142.14 21.2266 141.573 21.8189C141.015 22.4111 140.575 23.071 140.262 23.7901C139.949 24.5177 139.797 25.2283 139.797 25.939H152.386H152.403Z" fill="#1C355E"/>
<path d="M160.279 17.1573H164.273V20.3976H164.366C164.865 19.2724 165.736 18.3672 166.98 17.6734C168.223 16.9797 169.653 16.6328 171.278 16.6328C172.284 16.6328 173.249 16.7851 174.179 17.0981C175.11 17.4112 175.922 17.8849 176.616 18.5364C177.31 19.1878 177.868 20.0254 178.283 21.0406C178.697 22.0558 178.9 23.2656 178.9 24.6531V38.181H174.907V25.7614C174.907 24.7885 174.772 23.9509 174.509 23.2572C174.239 22.5634 173.892 22.0051 173.443 21.5736C173.003 21.1421 172.487 20.8375 171.912 20.643C171.337 20.4484 170.736 20.3553 170.119 20.3553C169.289 20.3553 168.52 20.4907 167.817 20.7529C167.115 21.0152 166.489 21.4382 165.956 22.0135C165.423 22.5888 165.009 23.3249 164.712 24.2047C164.416 25.093 164.273 26.1421 164.273 27.3519V38.1726H160.279V17.1573Z" fill="#1C355E"/>
<path d="M198.799 22.7412C198.063 21.9713 197.284 21.3876 196.472 20.9899C195.66 20.5923 194.687 20.3893 193.57 20.3893C192.453 20.3893 191.523 20.5923 190.711 20.9899C189.898 21.3876 189.222 21.9375 188.672 22.6312C188.122 23.325 187.707 24.1202 187.428 25.0255C187.149 25.9307 187.005 26.8698 187.005 27.8427C187.005 28.8156 187.166 29.7463 187.496 30.6177C187.817 31.4891 188.283 32.2505 188.866 32.9019C189.459 33.5534 190.169 34.061 190.998 34.4332C191.827 34.8055 192.758 34.9916 193.79 34.9916C194.915 34.9916 195.871 34.7886 196.675 34.3909C197.47 33.9933 198.215 33.4096 198.892 32.6397L201.726 35.4739C200.694 36.6244 199.484 37.4535 198.113 37.9527C196.743 38.4519 195.279 38.7057 193.748 38.7057C192.124 38.7057 190.635 38.4434 189.289 37.9104C187.944 37.3774 186.785 36.6329 185.812 35.6684C184.839 34.7124 184.086 33.5534 183.553 32.2082C183.02 30.863 182.758 29.374 182.758 27.7497C182.758 26.1253 183.029 24.6278 183.553 23.2742C184.086 21.9121 184.831 20.7446 185.795 19.7717C186.751 18.7987 187.91 18.0373 189.256 17.4874C190.601 16.9375 192.098 16.6667 193.756 16.6667C195.296 16.6667 196.768 16.9375 198.173 17.4874C199.577 18.0373 200.795 18.8664 201.827 19.9916L198.816 22.7412H198.799Z" fill="#1C355E"/>
<path d="M208.156 29.1285C208.156 30.0422 208.359 30.8798 208.756 31.6327C209.154 32.3857 209.678 33.0287 210.33 33.5617C210.981 34.0947 211.734 34.5092 212.589 34.8053C213.443 35.1014 214.332 35.2452 215.254 35.2452C216.497 35.2452 217.572 34.9576 218.494 34.3823C219.408 33.807 220.254 33.0456 221.024 32.098L224.036 34.4077C221.819 37.2757 218.714 38.7055 214.721 38.7055C213.063 38.7055 211.565 38.4263 210.22 37.8595C208.875 37.3011 207.741 36.5227 206.802 35.5329C205.871 34.543 205.152 33.3755 204.653 32.0304C204.154 30.6852 203.9 29.23 203.9 27.6649C203.9 26.0997 204.171 24.6446 204.721 23.2994C205.271 21.9542 206.024 20.7867 206.98 19.7969C207.944 18.807 209.086 18.0287 210.415 17.4703C211.743 16.9119 213.189 16.6243 214.763 16.6243C216.624 16.6243 218.198 16.9458 219.484 17.5972C220.77 18.2486 221.827 19.0947 222.656 20.1437C223.486 21.1928 224.086 22.3772 224.45 23.6886C224.822 25.0084 225.008 26.3451 225.008 27.6987V29.12H208.156V29.1285ZM220.744 25.939C220.711 25.0507 220.575 24.2385 220.321 23.5024C220.068 22.7664 219.695 22.1234 219.188 21.5735C218.689 21.0236 218.054 20.6006 217.301 20.2876C216.548 19.9745 215.668 19.8222 214.662 19.8222C213.655 19.8222 212.792 20.0084 211.98 20.3806C211.167 20.7529 210.482 21.2266 209.915 21.8189C209.349 22.4111 208.917 23.071 208.604 23.7901C208.291 24.5177 208.139 25.2283 208.139 25.939H220.728H220.744Z" fill="#1C355E"/>
<path d="M65.9138 45.6853H68.858V56.1845H82.0898V45.6853H85.034V70.4738H82.0898V58.9256H68.858V70.4738H65.9138V45.6853Z" fill="#00AEC8"/>
<path d="M104.45 67.4958C103.469 68.7564 102.394 69.6363 101.227 70.1354C100.059 70.6346 98.7058 70.8884 97.166 70.8884C95.8801 70.8884 94.7295 70.6599 93.6973 70.2031C92.6736 69.7462 91.8022 69.1371 91.0916 68.3672C90.3809 67.5973 89.831 66.6836 89.4503 65.6346C89.0696 64.5855 88.875 63.4687 88.875 62.2759C88.875 61.0153 89.0865 59.8562 89.5011 58.7902C89.9241 57.7242 90.5078 56.819 91.2523 56.0576C91.9968 55.2962 92.8851 54.7124 93.9088 54.2894C94.9325 53.8664 96.0577 53.6633 97.2676 53.6633C98.4097 53.6633 99.4588 53.8579 100.415 54.2386C101.371 54.6193 102.191 55.1862 102.885 55.9222C103.57 56.6583 104.103 57.555 104.476 58.621C104.848 59.687 105.034 60.8884 105.034 62.242V63.1134H91.8022C91.853 63.8156 92.0137 64.484 92.3099 65.127C92.5975 65.7699 92.9782 66.3283 93.4435 66.8105C93.9088 67.2928 94.4588 67.665 95.0848 67.9442C95.7109 68.2234 96.4046 68.3672 97.1491 68.3672C98.342 68.3672 99.3403 68.1557 100.161 67.7412C100.982 67.3181 101.709 66.7006 102.369 65.8884L104.433 67.4958H104.45ZM102.107 60.8038C102.056 59.3994 101.608 58.2826 100.745 57.4451C99.8818 56.6075 98.6889 56.1845 97.1745 56.1845C95.6601 56.1845 94.4334 56.6075 93.5027 57.4451C92.5721 58.2826 92.0053 59.4078 91.8192 60.8038H102.115H102.107Z" fill="#00AEC8"/>
<path d="M108.198 56.1846C109.036 55.3216 110.034 54.6871 111.193 54.281C112.352 53.8749 113.52 53.6719 114.712 53.6719C117.141 53.6719 118.892 54.2472 119.966 55.3893C121.041 56.5314 121.574 58.2742 121.574 60.6093V67.6482C121.574 68.1135 121.599 68.5957 121.641 69.1033C121.684 69.6025 121.743 70.0678 121.819 70.4908H119.196C119.103 70.1186 119.053 69.704 119.036 69.2472C119.027 68.7903 119.019 68.3927 119.019 68.0374H118.951C118.418 68.8749 117.699 69.5687 116.802 70.1017C115.905 70.6346 114.822 70.9054 113.562 70.9054C112.724 70.9054 111.937 70.8039 111.201 70.5923C110.465 70.3808 109.822 70.0763 109.272 69.6617C108.723 69.2472 108.283 68.748 107.961 68.1389C107.631 67.5297 107.47 66.836 107.47 66.0407C107.47 64.6871 107.817 63.6296 108.52 62.8597C109.222 62.0898 110.085 61.5145 111.125 61.1423C112.166 60.77 113.283 60.5331 114.484 60.4401C115.685 60.347 116.785 60.2962 117.792 60.2962H118.841V59.8055C118.841 58.6127 118.486 57.7159 117.775 57.1067C117.064 56.4976 116.066 56.193 114.78 56.193C113.892 56.193 113.02 56.3369 112.174 56.633C111.32 56.9206 110.567 57.3775 109.915 57.9781L108.198 56.193V56.1846ZM116.108 62.5974C114.357 62.5974 112.97 62.8428 111.946 63.3335C110.922 63.8242 110.406 64.6279 110.406 65.7531C110.406 66.7768 110.753 67.5128 111.438 67.9443C112.124 68.3758 112.987 68.5957 114.01 68.5957C114.805 68.5957 115.499 68.4604 116.091 68.1896C116.684 67.9189 117.183 67.5636 117.58 67.1236C117.978 66.6837 118.283 66.1592 118.494 65.567C118.706 64.9748 118.824 64.3402 118.841 63.655V62.6059H116.108V62.5974Z" fill="#00AEC8"/>
<path d="M125.948 44.0017H128.68V70.4653H125.948V44.0017Z" fill="#00AEC8"/>
<path d="M142.225 56.396H137.394V64.5855C137.394 65.1185 137.403 65.6177 137.428 66.0745C137.454 66.5314 137.547 66.929 137.707 67.2674C137.868 67.6059 138.114 67.8766 138.444 68.0712C138.773 68.2742 139.239 68.3673 139.839 68.3673C140.237 68.3673 140.643 68.3165 141.066 68.2235C141.489 68.1304 141.878 67.9866 142.259 67.8004L142.361 70.2878C141.895 70.4993 141.371 70.6515 140.804 70.7446C140.229 70.8377 139.687 70.88 139.18 70.88C138.198 70.88 137.42 70.7531 136.836 70.4908C136.252 70.237 135.795 69.8732 135.474 69.4079C135.144 68.9426 134.933 68.3673 134.823 67.6735C134.713 66.9798 134.662 66.2184 134.662 65.3808V56.3876H131.092V54.0779H134.662V49.4248H137.394V54.0779H142.225V56.3876V56.396Z" fill="#00AEC8"/>
<path d="M144.738 44.0017H147.47V56.3621H147.538C147.724 56.0322 147.978 55.7107 148.308 55.3977C148.638 55.0846 149.027 54.797 149.484 54.5432C149.941 54.2894 150.448 54.0779 151.007 53.9171C151.565 53.7564 152.166 53.6718 152.792 53.6718C153.866 53.6718 154.797 53.8325 155.575 54.1625C156.354 54.4924 157.005 54.9493 157.521 55.5245C158.037 56.1083 158.418 56.8105 158.663 57.6396C158.909 58.4687 159.027 59.374 159.027 60.3553V70.4738H156.294V60.6345C156.294 59.2555 155.99 58.1726 155.381 57.3773C154.772 56.5821 153.833 56.1845 152.547 56.1845C151.658 56.1845 150.897 56.3367 150.254 56.6413C149.611 56.9459 149.086 57.3773 148.68 57.9357C148.274 58.4941 147.97 59.1625 147.767 59.9323C147.564 60.7022 147.47 61.5567 147.47 62.4873V70.4653H144.738V44.0017Z" fill="#00AEC8"/>
<path d="M104.934 0.00651764L99.2153 5.72559L104.934 11.4447L110.653 5.72559L104.934 0.00651764Z" fill="#00AEC8"/>
</g>
<defs>
<clipPath id="clip0_388_22">
<rect width="225" height="70.8883" fill="white"/>
</clipPath>
</defs>
</svg>
