<svg width="16" height="16" viewBox="0 0 16 16" fill="none" xmlns="http://www.w3.org/2000/svg">
<path d="M11.856 2.13859L12.5254 0.666016L13.1947 2.13859L14.6673 2.80794L13.1947 3.4773L12.5254 4.94987L11.856 3.4773L10.3835 2.80794L11.856 2.13859Z" fill="url(#paint0_linear_7836_273343)"/>
<path d="M13.1232 10.4095C13.5511 9.98158 13.7915 9.40118 13.7915 8.79601C13.7915 8.19083 13.5511 7.61043 13.1232 7.18251C12.6953 6.75458 12.1149 6.51418 11.5097 6.51418H10.4613C10.3795 6.51418 10.3011 6.54666 10.2433 6.60449C10.1854 6.66232 10.1529 6.74075 10.1529 6.82253C10.1529 6.90431 10.1854 6.98274 10.2433 7.04057C10.3011 7.0984 10.3795 7.13089 10.4613 7.13089H11.5097C11.9513 7.13089 12.3749 7.30632 12.6871 7.61859C12.9994 7.93086 13.1748 8.35439 13.1748 8.79601C13.1748 9.23762 12.9994 9.66115 12.6871 9.97342C12.3749 10.2857 11.9513 10.4611 11.5097 10.4611H7.56276C7.11146 10.4611 6.67029 10.595 6.29505 10.8457C5.9198 11.0964 5.62733 11.4528 5.45463 11.8697C5.28192 12.2867 5.23673 12.7455 5.32478 13.1881C5.41282 13.6307 5.63014 14.0373 5.94926 14.3565C6.26838 14.6756 6.67497 14.8929 7.1176 14.9809C7.56023 15.069 8.01903 15.0238 8.43598 14.8511C8.85293 14.6784 9.2093 14.3859 9.46003 14.0107C9.71076 13.6354 9.84459 13.1943 9.84459 12.743V11.6945C9.84459 11.6128 9.8121 11.5343 9.75427 11.4765C9.69645 11.4187 9.61802 11.3862 9.53623 11.3862C9.45445 11.3862 9.37602 11.4187 9.3182 11.4765C9.26037 11.5343 9.22788 11.6128 9.22788 11.6945V12.743C9.22788 13.0723 9.13022 13.3942 8.94726 13.668C8.76429 13.9419 8.50424 14.1553 8.19997 14.2813C7.89571 14.4074 7.56091 14.4403 7.23791 14.3761C6.91491 14.3118 6.61822 14.1532 6.38534 13.9204C6.15247 13.6875 5.99389 13.3908 5.92964 13.0678C5.86539 12.7448 5.89836 12.41 6.02439 12.1057C6.15042 11.8015 6.36384 11.5414 6.63767 11.3585C6.9115 11.1755 7.23343 11.0778 7.56276 11.0778H11.5097C12.1149 11.0778 12.6953 10.8374 13.1232 10.4095Z" fill="url(#paint1_linear_7836_273343)"/>
<path d="M5.80733 7.52956C5.86515 7.58739 5.89764 7.66582 5.89764 7.7476V8.79601C5.89764 9.24731 5.76382 9.68848 5.51309 10.0637C5.26235 10.439 4.90598 10.7314 4.48903 10.9041C4.07208 11.0768 3.61328 11.122 3.17065 11.034C2.72802 10.9459 2.32144 10.7286 2.00232 10.4095C1.6832 10.0904 1.46587 9.6838 1.37783 9.24117C1.28979 8.79854 1.33497 8.33974 1.50768 7.92279C1.68039 7.50584 1.97285 7.14946 2.3481 6.89873C2.72334 6.648 3.16451 6.51418 3.61581 6.51418H8.61117C8.69295 6.51418 8.77138 6.54666 8.82921 6.60449C8.88704 6.66232 8.91952 6.74075 8.91952 6.82253C8.91795 6.90382 8.88495 6.98134 8.82746 7.03883C8.76997 7.09631 8.69246 7.12931 8.61117 7.13089H3.61581C3.28649 7.13089 2.96455 7.22854 2.69072 7.41151C2.4169 7.59448 2.20347 7.85453 2.07745 8.15879C1.95142 8.46305 1.91844 8.79785 1.98269 9.12085C2.04694 9.44386 2.20553 9.74055 2.4384 9.97342C2.67127 10.2063 2.96796 10.3649 3.29097 10.4291C3.61397 10.4934 3.94877 10.4604 4.25303 10.3344C4.55729 10.2083 4.81734 9.99492 5.00031 9.7211C5.18327 9.44727 5.28093 9.12533 5.28093 8.79601V7.7476C5.28093 7.66582 5.31342 7.58739 5.37125 7.52956C5.42908 7.47173 5.50751 7.43924 5.58929 7.43924C5.67107 7.43924 5.7495 7.47173 5.80733 7.52956Z" fill="url(#paint2_linear_7836_273343)"/>
<path d="M5.80558 6.11376C5.74809 6.17125 5.67057 6.20424 5.58929 6.20582C5.50751 6.20582 5.42908 6.17333 5.37125 6.11551C5.31342 6.05768 5.28093 5.97925 5.28093 5.89747V4.84906C5.28093 4.5494 5.33995 4.25268 5.45463 3.97584C5.5693 3.699 5.73738 3.44745 5.94926 3.23556C6.16115 3.02367 6.4127 2.8556 6.68954 2.74092C6.96639 2.62625 7.26311 2.56723 7.56276 2.56723C7.86241 2.56723 8.15914 2.62625 8.43598 2.74092C8.71282 2.8556 8.96437 3.02367 9.17626 3.23556C9.38815 3.44745 9.55622 3.699 9.6709 3.97584C9.78557 4.25268 9.84459 4.5494 9.84459 4.84906V9.84441C9.84301 9.9257 9.81002 10.0032 9.75253 10.0607C9.69504 10.1182 9.61752 10.1512 9.53623 10.1528C9.45445 10.1528 9.37602 10.1203 9.3182 10.0625C9.26037 10.0046 9.22788 9.92619 9.22788 9.84441V4.84906C9.22788 4.40744 9.05245 3.98391 8.74018 3.67164C8.42791 3.35937 8.00438 3.18394 7.56276 3.18394C7.12114 3.18394 6.69761 3.35937 6.38534 3.67164C6.07307 3.98391 5.89764 4.40744 5.89764 4.84906V5.89747C5.89606 5.97875 5.86307 6.05627 5.80558 6.11376Z" fill="url(#paint3_linear_7836_273343)"/>
<defs>
<linearGradient id="paint0_linear_7836_273343" x1="1.33398" y1="7.8454" x2="14.6673" y2="7.8454" gradientUnits="userSpaceOnUse">
<stop stop-color="#FF907F"/>
<stop offset="0.514423" stop-color="#FF57CD"/>
<stop offset="0.956731" stop-color="#68A7FF"/>
</linearGradient>
<linearGradient id="paint1_linear_7836_273343" x1="1.33398" y1="7.8454" x2="14.6673" y2="7.8454" gradientUnits="userSpaceOnUse">
<stop stop-color="#FF907F"/>
<stop offset="0.514423" stop-color="#FF57CD"/>
<stop offset="0.956731" stop-color="#68A7FF"/>
</linearGradient>
<linearGradient id="paint2_linear_7836_273343" x1="1.33398" y1="7.8454" x2="14.6673" y2="7.8454" gradientUnits="userSpaceOnUse">
<stop stop-color="#FF907F"/>
<stop offset="0.514423" stop-color="#FF57CD"/>
<stop offset="0.956731" stop-color="#68A7FF"/>
</linearGradient>
<linearGradient id="paint3_linear_7836_273343" x1="1.33398" y1="7.8454" x2="14.6673" y2="7.8454" gradientUnits="userSpaceOnUse">
<stop stop-color="#FF907F"/>
<stop offset="0.514423" stop-color="#FF57CD"/>
<stop offset="0.956731" stop-color="#68A7FF"/>
</linearGradient>
</defs>
</svg>
